<svg width="261.721" height="261.721" xmlns="http://www.w3.org/2000/svg">

 <g>
  <title>background</title>
  <rect fill="none" id="canvas_background" height="263.721" width="263.721" y="-1" x="-1"/>
 </g>
 <g>
  <title>Layer 1</title>
  <text stroke="null" x="2.06898" y="89" id="svg_7" fill="#FFFFFF" transform="matrix(1,0,0,1,0.00004666571,68.3271) ">ai2html</text>
  <path stroke="null" fill="#202020" d="m24.46898,157.327l0,-2.8c-2.226,2.513 -5.241,3.733 -9.19,3.733c-7.107,0 -11.272,-4.38 -11.272,-11.774c0,-7.682 4.882,-12.277 12.851,-12.277c3.159,0 5.815,1.005 7.754,2.441c0,-0.287 0.072,-0.646 0.072,-0.933c0,-3.662 -2.154,-5.313 -6.677,-5.313c-3.231,0 -6.318,0.79 -9.621,2.297l-2.297,-8.113c4.523,-1.795 9.334,-2.656 14.359,-2.656c12.205,0 17.159,4.667 17.159,14.862l0,11.63l2.728,0l0,8.903l-15.866,0zm-3.231,-7.18c2.513,0 3.733,-1.508 3.733,-4.524c0,-2.871 -1.292,-4.523 -3.59,-4.523c-2.441,0 -3.877,1.652 -3.877,4.595c0.001,2.872 1.294,4.452 3.734,4.452z" id="a"/>
  <path stroke="null" fill="#202020" d="m42.12798,131.408l0,-8.615l18.164,0l0,25.631l3.015,0l0,8.903l-20.533,0l0,-8.903l3.446,0l0,-17.016l-4.092,0zm4.235,-24.41l13.928,0l0,12.636l-13.928,0l0,-12.636z" id="i"/>
  <path stroke="null" fill="#CCCCCC" d="m65.92298,157.327c0,-0.359 0,-0.646 0,-1.005c0,-7.323 3.733,-13.354 10.769,-20.461c4.236,-4.236 7.682,-6.964 9.549,-8.759c2.226,-2.082 3.59,-3.662 3.59,-6.175c0,-3.087 -2.01,-5.169 -5.098,-5.169c-3.877,0 -5.887,3.016 -5.887,8.903c0,0.072 0,0.216 0,0.287l-11.775,-0.646c0.718,-12.062 7.969,-18.81 20.031,-18.81c10.985,0 17.877,6.174 17.877,15.938c0,6.964 -3.805,10.841 -10.913,15.723c-3.949,2.728 -8.759,5.169 -12.851,9.405l14.287,0l0,-6.964l9.477,0l0,17.733l-39.056,0z" id="_x32_"/>
  <path stroke="null" fill="#202020" d="m110.21698,148.424l3.159,0l0,-33.816l-3.159,0l0,-8.615l17.231,0l0,21.467c3.015,-3.662 6.39,-5.456 10.554,-5.456c6.174,0 9.692,3.518 9.692,10.123l0,16.297l2.8,0l0,8.903l-16.8,0l0,-20.678c0,-2.656 -1.148,-4.164 -3.087,-4.164c-1.867,0 -3.159,1.58 -3.159,4.164l0,11.774l2.943,0l0,8.903l-20.174,0l0,-8.902z" id="h"/>
  <path stroke="null" fill="#202020" d="m155.22398,131.408l-2.944,0l0,-8.615l2.944,0l0,-10.769l14.287,0l0,10.769l3.087,0l0,8.615l-3.087,0l0,17.015l3.087,0l0,8.903l-17.374,0l0,-25.918z" id="t"/>
  <path stroke="null" fill="#202020" d="m176.60598,148.424l3.088,0l0,-17.016l-3.088,0l0,-8.615l17.015,0l0,4.667c2.944,-3.662 6.318,-5.456 10.483,-5.456c4.666,0 7.754,2.082 9.046,6.103c3.015,-4.092 6.605,-6.103 10.913,-6.103c6.175,0 9.621,3.518 9.621,10.123l0,16.297l2.8,0l0,8.903l-16.657,0l0,-20.678c0,-2.656 -1.22,-4.164 -3.087,-4.164c-1.867,0 -3.159,1.58 -3.159,4.164l0,11.774l3.015,0l0,8.903l-16.8,0l0,-20.677c0,-2.656 -1.149,-4.164 -3.087,-4.164c-1.867,0 -3.088,1.58 -3.088,4.164l0,11.774l2.944,0l0,8.903l-19.959,0l0,-8.902z" id="m"/>
  <path stroke="null" fill="#202020" d="m239.26198,157.327l0,-8.831l3.087,0l0,-33.888l-3.015,0l0,-8.615l17.302,0l0,42.502l3.016,0l0,8.831l-20.39,0l0,0.001z" id="l"/>
  <g stroke="null" id="svg_8">
   <g stroke="null" id="svg_9">
    <path stroke="#202020" id="svg_10" fill="none" stroke-linecap="round" stroke-linejoin="round" d="m65.45698,108.513c0.245,-0.796 4.964,-11.197 20.667,-11.833c5.31,-0.215 9.655,1.269 12.858,3.122"/>
    <g stroke="null" id="svg_11">
     <polygon stroke="null" id="svg_12" fill="#202020" points="95.37897753715515,100.74600219726562 105.28998064994812,106.01300048828125 99.34098315238953,96.49600219726562 "/>
    </g>
   </g>
  </g>
 </g>
</svg>