<?xml version="1.0" encoding="utf-8"?>
<!-- Generator: Adobe Illustrator 16.0.0, SVG Export Plug-In . SVG Version: 6.00 Build 0)  -->
<!DOCTYPE svg PUBLIC "-//W3C//DTD SVG 1.1//EN" "http://www.w3.org/Graphics/SVG/1.1/DTD/svg11.dtd">
<svg version="1.1" id="Layer_1" xmlns="http://www.w3.org/2000/svg" xmlns:xlink="http://www.w3.org/1999/xlink" x="0px" y="0px"
	 width="612px" height="792px" viewBox="0 0 612 792" enable-background="new 0 0 612 792" xml:space="preserve">
<path id="a_1_" display="none" fill="#FFFFFF" d="M52.379,797.195v-6.548c-5.205,5.876-12.255,8.729-21.49,8.729
	c-16.619,0-26.358-10.242-26.358-27.532c0-17.964,11.416-28.708,30.05-28.708c7.387,0,13.598,2.35,18.132,5.708
	c0-0.672,0.168-1.511,0.168-2.182c0-8.563-5.037-12.424-15.613-12.424c-7.555,0-14.774,1.847-22.498,5.371L9.4,720.639
	c10.576-4.197,21.826-6.21,33.577-6.21c28.54,0,40.124,10.913,40.124,34.752v27.195h6.379v20.819H52.379L52.379,797.195z
	 M44.824,780.405c5.876,0,8.729-3.526,8.729-10.578c0-6.714-3.021-10.577-8.395-10.577c-5.708,0-9.066,3.863-9.066,10.745
	C36.095,776.711,39.119,780.405,44.824,780.405z"/>
<path id="i_1_" display="none" fill="#FFFFFF" d="M93.673,736.587v-20.146h42.474v59.935h7.05v20.819H95.183v-20.819h8.058v-39.787
	h-9.568V736.587z M103.576,679.507h32.569v29.548h-32.569V679.507z"/>
<path id="_x32__1_" display="none" fill="#CCCCCC" fill-opacity="0.46" d="M149.314,797.195c0-0.84,0-1.511,0-2.351
	c0-17.124,8.729-31.227,25.182-47.845c9.905-9.906,17.963-16.285,22.329-20.482c5.205-4.868,8.395-8.563,8.395-14.439
	c0-7.219-4.7-12.087-11.921-12.087c-9.066,0-13.766,7.053-13.766,20.818c0,0.169,0,0.505,0,0.671l-27.534-1.51
	c1.679-28.206,18.634-43.985,46.84-43.985c25.687,0,41.803,14.438,41.803,37.27c0,16.284-8.897,25.35-25.519,36.766
	c-9.234,6.379-20.482,12.087-30.051,21.992h33.408v-16.284h22.161v41.467H149.314L149.314,797.195z"/>
<path id="h_1_" display="none" fill="#FFFFFF" d="M252.89,776.376h7.387v-79.071h-7.387v-20.146h40.292v50.198
	c7.05-8.563,14.942-12.759,24.679-12.759c14.438,0,22.663,8.227,22.663,23.672v38.108h6.548v20.818h-39.284v-48.353
	c0-6.211-2.685-9.737-7.219-9.737c-4.366,0-7.387,3.694-7.387,9.737v27.531h6.882v20.819H252.89V776.376L252.89,776.376z"/>
<path id="t_1_" display="none" fill="#FFFFFF" d="M358.133,736.587h-6.884v-20.146h6.884V691.26h33.408v25.182h7.219v20.146h-7.219
	v39.787h7.219v20.818h-40.627V736.587z"/>
<path id="m_1_" display="none" fill="#FFFFFF" d="M408.132,776.376h7.221v-39.787h-7.221v-20.145h39.787v10.913
	c6.884-8.563,14.773-12.759,24.514-12.759c10.91,0,18.131,4.869,21.152,14.271c7.05-9.568,15.445-14.271,25.519-14.271
	c14.439,0,22.498,8.227,22.498,23.672v38.108h6.547v20.818h-38.95v-48.353c0-6.211-2.853-9.737-7.219-9.737
	c-4.365,0-7.387,3.694-7.387,9.737v27.531h7.05v20.819h-39.284v-48.351c0-6.211-2.687-9.737-7.219-9.737
	c-4.365,0-7.221,3.694-7.221,9.737v27.531h6.884v20.819h-46.671V776.376z"/>
<path id="l_1_" display="none" fill="#FFFFFF" d="M554.645,797.195v-20.65h7.219v-79.24h-7.051v-20.146h40.459v99.386h7.053v20.65
	H554.645z"/>
<g display="none">
	<g display="inline">
		<path fill="none" stroke="#FFFFFF" stroke-linecap="round" stroke-linejoin="round" d="M148.225,683.05
			c0.573-1.861,11.607-26.183,48.327-27.67c12.417-0.503,22.577,2.968,30.066,7.301"/>
		<g>
			<polygon fill="#FFFFFF" points="218.193,664.888 241.369,677.204 227.458,654.95 			"/>
		</g>
	</g>
</g>
<g display="none" enable-background="new    ">
	<path display="inline" fill="#FFFFFF" d="M67.883,459.083c-5.466,4.646-10.727,7.926-15.782,9.839
		c-5.056,1.912-10.481,2.869-16.274,2.869c-9.565,0-16.917-2.337-22.054-7.01c-5.138-4.673-7.707-10.644-7.707-17.913
		c0-4.264,0.97-8.158,2.91-11.684c1.939-3.525,4.481-6.354,7.625-8.485c3.143-2.131,6.682-3.743,10.617-4.837
		c2.896-0.765,7.269-1.503,13.118-2.214c11.915-1.42,20.687-3.115,26.317-5.082c0.054-2.021,0.082-3.307,0.082-3.854
		c0-6.012-1.394-10.248-4.181-12.707c-3.771-3.334-9.374-5.002-16.807-5.002c-6.942,0-12.066,1.217-15.372,3.648
		c-3.308,2.433-5.753,6.736-7.337,12.912l-14.429-1.967c1.312-6.176,3.47-11.163,6.477-14.962c3.005-3.798,7.351-6.723,13.036-8.772
		c5.684-2.049,12.27-3.074,19.758-3.074c7.432,0,13.472,0.875,18.118,2.624c4.645,1.75,8.062,3.949,10.248,6.6
		c2.186,2.652,3.716,5.999,4.591,10.043c0.492,2.515,0.738,7.051,0.738,13.609v19.676c0,13.72,0.314,22.396,0.943,26.03
		c0.627,3.636,1.872,7.12,3.73,10.453H70.834C69.304,466.763,68.32,463.183,67.883,459.083z M66.653,426.126
		c-5.357,2.187-13.392,4.045-24.104,5.574c-6.067,0.875-10.358,1.859-12.872,2.952c-2.515,1.094-4.455,2.692-5.821,4.796
		c-1.367,2.104-2.05,4.441-2.05,7.01c0,3.935,1.489,7.215,4.468,9.838c2.979,2.623,7.337,3.936,13.077,3.936
		c5.684,0,10.74-1.243,15.167-3.73c4.427-2.486,7.678-5.889,9.756-10.207c1.585-3.333,2.378-8.252,2.378-14.757V426.126z"/>
	<path display="inline" fill="#FFFFFF" d="M104.53,366.605v-16.971h14.757v16.971H104.53z M104.53,469.823v-87.067h14.757v87.067
		H104.53z"/>
	<path display="inline" fill="#FFFFFF" d="M215.208,455.64v14.184h-79.442c-0.11-3.552,0.464-6.969,1.722-10.248
		c2.021-5.411,5.26-10.74,9.715-15.987c4.454-5.246,10.89-11.313,19.307-18.2c13.063-10.712,21.89-19.196,26.481-25.456
		c4.591-6.257,6.887-12.174,6.887-17.75c0-5.848-2.091-10.781-6.272-14.798c-4.181-4.018-9.633-6.026-16.356-6.026
		c-7.105,0-12.79,2.131-17.053,6.395s-6.423,10.166-6.477,17.708l-15.167-1.558c1.038-11.314,4.946-19.935,11.724-25.866
		c6.776-5.93,15.876-8.896,27.301-8.896c11.531,0,20.66,3.197,27.383,9.592c6.723,6.395,10.084,14.32,10.084,23.775
		c0,4.81-0.984,9.538-2.952,14.183c-1.968,4.646-5.234,9.539-9.797,14.676c-4.564,5.138-12.148,12.188-22.751,21.151
		c-8.854,7.434-14.539,12.476-17.052,15.126c-2.515,2.651-4.591,5.316-6.231,7.993H215.208z"/>
	<path display="inline" fill="#FFFFFF" d="M235.13,469.823V349.635h14.757v43.124c6.886-7.979,15.577-11.97,26.071-11.97
		c6.449,0,12.052,1.271,16.807,3.812c4.755,2.542,8.158,6.054,10.208,10.535c2.049,4.482,3.074,10.985,3.074,19.513v55.175H291.29
		v-55.175c0-7.379-1.599-12.749-4.796-16.11c-3.197-3.361-7.72-5.042-13.568-5.042c-4.373,0-8.485,1.135-12.338,3.402
		c-3.853,2.269-6.6,5.343-8.239,9.223c-1.64,3.882-2.459,9.238-2.459,16.069v47.633H235.13z"/>
	<path display="inline" fill="#FFFFFF" d="M360.73,456.624l2.131,13.035c-4.154,0.874-7.87,1.312-11.149,1.312
		c-5.357,0-9.511-0.848-12.462-2.541s-5.029-3.921-6.23-6.682c-1.203-2.76-1.804-8.567-1.804-17.422v-50.092h-10.822v-11.478h10.822
		v-21.562l14.675-8.854v30.417h14.84v11.478h-14.84v50.913c0,4.209,0.259,6.914,0.779,8.116c0.519,1.202,1.365,2.159,2.541,2.869
		c1.175,0.711,2.855,1.065,5.042,1.065C355.893,457.197,358.052,457.007,360.73,456.624z"/>
	<path display="inline" fill="#FFFFFF" d="M375.159,469.823v-87.067h13.2v12.215c2.732-4.263,6.366-7.692,10.903-10.289
		c4.536-2.595,9.701-3.894,15.495-3.894c6.449,0,11.736,1.34,15.864,4.017c4.126,2.679,7.036,6.423,8.731,11.232
		c6.887-10.166,15.85-15.249,26.891-15.249c8.635,0,15.275,2.392,19.922,7.173c4.646,4.783,6.969,12.147,6.969,22.095v59.767H478.46
		v-54.847c0-5.903-0.479-10.152-1.435-12.749c-0.957-2.596-2.693-4.687-5.206-6.272c-2.515-1.584-5.467-2.377-8.854-2.377
		c-6.122,0-11.205,2.037-15.249,6.107c-4.046,4.072-6.067,10.59-6.067,19.554v50.584h-14.757v-56.569
		c0-6.559-1.203-11.478-3.607-14.757c-2.405-3.279-6.341-4.919-11.806-4.919c-4.154,0-7.993,1.094-11.519,3.279
		c-3.525,2.187-6.081,5.384-7.666,9.592c-1.586,4.209-2.377,10.276-2.377,18.201v45.173H375.159z"/>
	<path display="inline" fill="#FFFFFF" d="M514.696,469.823V349.635h14.757v120.188H514.696z"/>
</g>
<path id="a" fill="#202020" d="M52.379,469.823v-6.547c-5.205,5.876-12.255,8.729-21.49,8.729
	c-16.619,0-26.358-10.242-26.358-27.531c0-17.964,11.416-28.708,30.05-28.708c7.387,0,13.598,2.35,18.132,5.707
	c0-0.671,0.168-1.51,0.168-2.182c0-8.563-5.037-12.424-15.613-12.424c-7.555,0-14.774,1.848-22.498,5.371L9.4,393.268
	c10.576-4.197,21.826-6.21,33.577-6.21c28.54,0,40.124,10.914,40.124,34.752v27.195h6.379v20.818H52.379z M44.824,453.034
	c5.876,0,8.729-3.526,8.729-10.579c0-6.713-3.021-10.576-8.395-10.576c-5.708,0-9.066,3.863-9.066,10.745
	C36.095,449.339,39.119,453.034,44.824,453.034z"/>
<path id="i" fill="#202020" d="M93.673,409.215V389.07h42.474v59.935h7.05v20.818H95.183v-20.818h8.058v-39.79H93.673z
	 M103.576,352.136h32.569v29.548h-32.569V352.136z"/>
<path id="_x32_" fill="#CCCCCC" d="M149.314,469.823c0-0.839,0-1.511,0-2.35c0-17.124,8.729-31.227,25.182-47.846
	c9.905-9.905,17.963-16.284,22.329-20.481c5.205-4.869,8.395-8.563,8.395-14.439c0-7.219-4.7-12.087-11.921-12.087
	c-9.066,0-13.766,7.053-13.766,20.819c0,0.168,0,0.505,0,0.671l-27.534-1.511c1.679-28.205,18.634-43.984,46.84-43.984
	c25.687,0,41.803,14.437,41.803,37.269c0,16.285-8.897,25.351-25.519,36.767c-9.234,6.379-20.482,12.087-30.051,21.992h33.408
	v-16.284h22.161v41.466H149.314z"/>
<path id="h" fill="#202020" d="M252.89,449.005h7.387v-79.074h-7.387v-20.145h40.292v50.198c7.05-8.563,14.942-12.758,24.679-12.758
	c14.438,0,22.663,8.227,22.663,23.671v38.108h6.548v20.818h-39.284v-48.353c0-6.211-2.685-9.736-7.219-9.736
	c-4.366,0-7.387,3.693-7.387,9.736v27.532h6.882v20.818H252.89V449.005L252.89,449.005z"/>
<path id="t" fill="#202020" d="M358.133,409.215h-6.884V389.07h6.884v-25.182h33.408v25.182h7.219v20.145h-7.219v39.788h7.219
	v20.818h-40.627V409.215z"/>
<path id="m" fill="#202020" d="M408.132,449.005h7.221v-39.79h-7.221V389.07h39.787v10.913c6.884-8.563,14.773-12.758,24.514-12.758
	c10.91,0,18.131,4.869,21.152,14.271c7.05-9.568,15.445-14.271,25.519-14.271c14.439,0,22.498,8.227,22.498,23.671v38.108h6.547
	v20.818h-38.95v-48.353c0-6.211-2.853-9.736-7.219-9.736c-4.365,0-7.387,3.693-7.387,9.736v27.532h7.05v20.818h-39.284v-48.351
	c0-6.211-2.687-9.736-7.219-9.736c-4.365,0-7.221,3.693-7.221,9.736v27.532h6.884v20.818h-46.671V449.005z"/>
<path id="l" fill="#202020" d="M554.645,469.823v-20.65h7.219v-79.242h-7.051v-20.145h40.459v99.385h7.053v20.65h-47.68V469.823z"/>
<g>
	<g>
		<path fill="none" stroke="#202020" stroke-linecap="round" stroke-linejoin="round" d="M148.225,355.678
			c0.573-1.861,11.607-26.183,48.327-27.67c12.417-0.502,22.577,2.967,30.066,7.3"/>
		<g>
			<polygon fill="#202020" points="218.193,337.516 241.369,349.833 227.458,327.578 			"/>
		</g>
	</g>
</g>
</svg>
